<?xml version="1.0" standalone="no"?><!DOCTYPE svg PUBLIC "-//W3C//DTD SVG 1.1//EN" "http://www.w3.org/Graphics/SVG/1.1/DTD/svg11.dtd"><svg t="1560231147836" class="icon" style="" viewBox="0 0 1000 1000" version="1.1" xmlns="http://www.w3.org/2000/svg" p-id="6831" xmlns:xlink="http://www.w3.org/1999/xlink" width="64" height="64"><defs><style type="text/css"></style></defs><path d="M987.6770000000001 514.0350000000002c8.526512829121202e-14-257.014-209.09599999999983-466.10300000000007-466.08399999999983-466.1030000000001-256.992-5.684341886080802e-14-466.08700000000005 209.08899999999983-466.0870000000001 466.1029999999999-8.526512829121202e-14 257.01099999999997 209.09499999999983 466.1 466.0869999999998 466.10000000000014 256.987 5.684341886080802e-14 466.085-209.08999999999978 466.0840000000001-466.09999999999985zM581.9499999999998 741.991l-217.54999999999993-217.52400000000006c-4.443999999999999-4.444000000000002-6.943999999999997-10.477000000000004-6.944999999999996-16.757000000000005 4.163336342344337e-17-0.124 6.938893903907228e-17-0.23100000000000004 1.3877787807814457e-16-0.354 0.09400000000000253-6.402999999999999 2.7780000000000022-12.497999999999998 7.438000000000005-16.896l217.55100000000004-204.87699999999998c9.535000000000004-8.980999999999996 24.532000000000004-8.531999999999991 33.513 1.0030000000000143 9.011999999999997 9.534000000000002 8.51699999999999 24.518-0.9880000000000102 33.49799999999999l-199.77700000000007 188.13499999999993 200.27099999999993 200.26100000000008c9.257999999999996 9.257000000000003 9.257999999999992 24.252000000000002-7.105427357601002e-15 33.511-9.255000000000004 9.258999999999997-24.254000000000005 9.258999999999995-33.513 0.000999999999990564z" p-id="6832"></path></svg>